<svg width="512" height="512" viewBox="0 0 512 512" fill="none" xmlns="http://www.w3.org/2000/svg">
<circle cx="64" cy="192" r="64" transform="rotate(180 64 192)" fill="#0D877D"/>
<path d="M448 128C483.346 128 512 156.654 512 192C512 221.971 491.399 247.129 463.585 254.088C454.793 256.288 446.441 261.079 442.388 269.186C438.332 277.297 439.509 286.857 443.024 295.217C446.229 302.839 448 311.213 448 320C448 355.346 419.346 384 384 384C348.654 384 320 355.346 320 320C320 290.61 339.81 265.848 366.806 258.337C375.878 255.812 384.506 250.788 388.717 242.365C392.93 233.939 391.775 224.02 388.352 215.244C385.542 208.039 384 200.2 384 192C384 156.654 412.654 128 448 128Z" fill="#0D877D"/>
<path d="M256 128C291.346 128 320 156.654 320 192C320 221.971 299.399 247.129 271.585 254.088C262.793 256.288 254.441 261.079 250.388 269.186C246.332 277.297 247.509 286.857 251.024 295.217C254.229 302.839 256 311.213 256 320C256 355.346 227.346 384 192 384C156.654 384 128 355.346 128 320C128 290.61 147.81 265.848 174.806 258.337C183.878 255.812 192.506 250.788 196.717 242.365C200.93 233.939 199.775 224.02 196.352 215.244C193.542 208.039 192 200.2 192 192C192 156.654 220.654 128 256 128Z" fill="#0D877D"/>
</svg>
