<svg width="512" height="512" viewBox="0 0 512 512" fill="none" xmlns="http://www.w3.org/2000/svg">
<circle cx="64" cy="160" r="64" transform="rotate(180 64 160)" fill="#0D877D"/>
<path d="M256 96C291.346 96 320 124.654 320 160C320 182.084 308.814 201.555 291.799 213.057C275.031 224.392 256.37 236.363 249.97 255.564L244.498 271.981C238.106 291.157 245.831 311.887 252.468 330.979C254.756 337.563 256 344.636 256 352C256 387.346 227.346 416 192 416C156.654 416 128 387.346 128 352C128 330.087 139.012 310.747 155.805 299.211C172.235 287.924 190.452 276.004 196.756 257.094L202.879 238.724C209.174 219.839 201.77 199.418 195.376 180.566C193.187 174.112 192 167.194 192 160C192 124.654 220.654 96 256 96Z" fill="#0D877D"/>
<path d="M448 96C483.346 96 512 124.654 512 160C512 182.084 500.814 201.555 483.799 213.057C467.031 224.392 448.37 236.363 441.97 255.564L436.498 271.981C430.106 291.157 437.831 311.887 444.468 330.979C446.756 337.563 448 344.636 448 352C448 387.346 419.346 416 384 416C348.654 416 320 387.346 320 352C320 330.087 331.012 310.747 347.805 299.211C364.235 287.924 382.452 276.004 388.756 257.094L394.879 238.724C401.174 219.839 393.77 199.418 387.376 180.566C385.187 174.112 384 167.194 384 160C384 124.654 412.654 96 448 96Z" fill="#0D877D"/>
</svg>
