<svg width="512" height="512" viewBox="0 0 512 512" fill="none" xmlns="http://www.w3.org/2000/svg">
<rect x="35.7207" y="94" width="11.907" height="12" fill="#0D877D"/>
<rect x="47.6279" y="94" width="11.907" height="12" fill="#0D877D"/>
<rect x="59.5347" y="94" width="11.907" height="12" fill="#0D877D"/>
<rect x="71.4419" y="94" width="11.907" height="12" fill="#0D877D"/>
<rect x="83.3486" y="94" width="11.907" height="12" fill="#0D877D"/>
<rect x="226.232" y="94" width="11.907" height="12" fill="#0D877D"/>
<rect x="238.14" y="94" width="11.907" height="12" fill="#0D877D"/>
<rect x="250.046" y="94" width="11.907" height="12" fill="#0D877D"/>
<rect x="261.954" y="94" width="11.907" height="12" fill="#0D877D"/>
<rect x="273.86" y="94" width="11.907" height="12" fill="#0D877D"/>
<rect x="416.744" y="94" width="11.907" height="12" fill="#0D877D"/>
<rect x="428.651" y="94" width="11.907" height="12" fill="#0D877D"/>
<rect x="440.558" y="94" width="11.907" height="12" fill="#0D877D"/>
<rect x="452.465" y="94" width="11.907" height="12" fill="#0D877D"/>
<rect x="464.372" y="94" width="11.907" height="12" fill="#0D877D"/>
<rect x="23.814" y="106" width="11.907" height="12" fill="#0D877D"/>
<rect x="35.7207" y="106" width="11.907" height="12" fill="#0D877D"/>
<rect x="47.6279" y="106" width="11.907" height="12" fill="#0D877D"/>
<rect x="59.5347" y="106" width="11.907" height="12" fill="#0D877D"/>
<rect x="71.4419" y="106" width="11.907" height="12" fill="#0D877D"/>
<rect x="83.3486" y="106" width="11.907" height="12" fill="#0D877D"/>
<rect x="95.2559" y="106" width="11.907" height="12" fill="#0D877D"/>
<rect x="214.326" y="106" width="11.907" height="12" fill="#0D877D"/>
<rect x="226.232" y="106" width="11.907" height="12" fill="#0D877D"/>
<rect x="238.14" y="106" width="11.907" height="12" fill="#0D877D"/>
<rect x="250.046" y="106" width="11.907" height="12" fill="#0D877D"/>
<rect x="261.954" y="106" width="11.907" height="12" fill="#0D877D"/>
<rect x="273.86" y="106" width="11.907" height="12" fill="#0D877D"/>
<rect x="285.768" y="106" width="11.907" height="12" fill="#0D877D"/>
<rect x="404.837" y="106" width="11.907" height="12" fill="#0D877D"/>
<rect x="416.744" y="106" width="11.907" height="12" fill="#0D877D"/>
<rect x="428.651" y="106" width="11.907" height="12" fill="#0D877D"/>
<rect x="440.558" y="106" width="11.907" height="12" fill="#0D877D"/>
<rect x="452.465" y="106" width="11.907" height="12" fill="#0D877D"/>
<rect x="464.372" y="106" width="11.907" height="12" fill="#0D877D"/>
<rect x="476.279" y="106" width="11.907" height="12" fill="#0D877D"/>
<rect x="11.9067" y="118" width="11.907" height="12" fill="#0D877D"/>
<rect x="23.814" y="118" width="11.907" height="12" fill="#0D877D"/>
<rect x="35.7207" y="118" width="11.907" height="12" fill="#0D877D"/>
<rect x="47.6279" y="118" width="11.907" height="12" fill="#0D877D"/>
<rect x="59.5347" y="118" width="11.907" height="12" fill="#0D877D"/>
<rect x="71.4419" y="118" width="11.907" height="12" fill="#0D877D"/>
<rect x="83.3486" y="118" width="11.907" height="12" fill="#0D877D"/>
<rect x="95.2559" y="118" width="11.907" height="12" fill="#0D877D"/>
<rect x="107.163" y="118" width="11.907" height="12" fill="#0D877D"/>
<rect x="202.418" y="118" width="11.907" height="12" fill="#0D877D"/>
<rect x="214.326" y="118" width="11.907" height="12" fill="#0D877D"/>
<rect x="226.232" y="118" width="11.907" height="12" fill="#0D877D"/>
<rect x="238.14" y="118" width="11.907" height="12" fill="#0D877D"/>
<rect x="250.046" y="118" width="11.907" height="12" fill="#0D877D"/>
<rect x="261.954" y="118" width="11.907" height="12" fill="#0D877D"/>
<rect x="273.86" y="118" width="11.907" height="12" fill="#0D877D"/>
<rect x="285.768" y="118" width="11.907" height="12" fill="#0D877D"/>
<rect x="297.674" y="118" width="11.907" height="12" fill="#0D877D"/>
<rect x="392.93" y="118" width="11.907" height="12" fill="#0D877D"/>
<rect x="404.837" y="118" width="11.907" height="12" fill="#0D877D"/>
<rect x="416.744" y="118" width="11.907" height="12" fill="#0D877D"/>
<rect x="428.651" y="118" width="11.907" height="12" fill="#0D877D"/>
<rect x="440.558" y="118" width="11.907" height="12" fill="#0D877D"/>
<rect x="452.465" y="118" width="11.907" height="12" fill="#0D877D"/>
<rect x="464.372" y="118" width="11.907" height="12" fill="#0D877D"/>
<rect x="476.279" y="118" width="11.907" height="12" fill="#0D877D"/>
<rect x="488.186" y="118" width="11.907" height="12" fill="#0D877D"/>
<rect y="130" width="11.907" height="12" fill="#0D877D"/>
<rect x="11.9067" y="130" width="11.907" height="12" fill="#0D877D"/>
<rect x="23.814" y="130" width="11.907" height="12" fill="#0D877D"/>
<rect x="35.7207" y="130" width="11.907" height="12" fill="#0D877D"/>
<rect x="47.6279" y="130" width="11.907" height="12" fill="#0D877D"/>
<rect x="59.5347" y="130" width="11.907" height="12" fill="#0D877D"/>
<rect x="71.4419" y="130" width="11.907" height="12" fill="#0D877D"/>
<rect x="83.3486" y="130" width="11.907" height="12" fill="#0D877D"/>
<rect x="95.2559" y="130" width="11.907" height="12" fill="#0D877D"/>
<rect x="107.163" y="130" width="11.907" height="12" fill="#0D877D"/>
<rect x="190.512" y="130" width="11.907" height="12" fill="#0D877D"/>
<rect x="202.418" y="130" width="11.907" height="12" fill="#0D877D"/>
<rect x="214.326" y="130" width="11.907" height="12" fill="#0D877D"/>
<rect x="226.232" y="130" width="11.907" height="12" fill="#0D877D"/>
<rect x="238.14" y="130" width="11.907" height="12" fill="#0D877D"/>
<rect x="250.046" y="130" width="11.907" height="12" fill="#0D877D"/>
<rect x="261.954" y="130" width="11.907" height="12" fill="#0D877D"/>
<rect x="273.86" y="130" width="11.907" height="12" fill="#0D877D"/>
<rect x="285.768" y="130" width="11.907" height="12" fill="#0D877D"/>
<rect x="297.674" y="130" width="11.907" height="12" fill="#0D877D"/>
<rect x="381.023" y="130" width="11.907" height="12" fill="#0D877D"/>
<rect x="392.93" y="130" width="11.907" height="12" fill="#0D877D"/>
<rect x="404.837" y="130" width="11.907" height="12" fill="#0D877D"/>
<rect x="416.744" y="130" width="11.907" height="12" fill="#0D877D"/>
<rect x="428.651" y="130" width="11.907" height="12" fill="#0D877D"/>
<rect x="440.558" y="130" width="11.907" height="12" fill="#0D877D"/>
<rect x="452.465" y="130" width="11.907" height="12" fill="#0D877D"/>
<rect x="464.372" y="130" width="11.907" height="12" fill="#0D877D"/>
<rect x="476.279" y="130" width="11.907" height="12" fill="#0D877D"/>
<rect x="488.186" y="130" width="11.907" height="12" fill="#0D877D"/>
<rect y="142" width="11.907" height="12" fill="#0D877D"/>
<rect x="11.9067" y="142" width="11.907" height="12" fill="#0D877D"/>
<rect x="23.814" y="142" width="11.907" height="12" fill="#0D877D"/>
<rect x="35.7207" y="142" width="11.907" height="12" fill="#0D877D"/>
<rect x="47.6279" y="142" width="11.907" height="12" fill="#0D877D"/>
<rect x="59.5347" y="142" width="11.907" height="12" fill="#0D877D"/>
<rect x="71.4419" y="142" width="11.907" height="12" fill="#0D877D"/>
<rect x="83.3486" y="142" width="11.907" height="12" fill="#0D877D"/>
<rect x="95.2559" y="142" width="11.907" height="12" fill="#0D877D"/>
<rect x="107.163" y="142" width="11.907" height="12" fill="#0D877D"/>
<rect x="119.07" y="142" width="11.907" height="12" fill="#0D877D"/>
<rect x="190.512" y="142" width="11.907" height="12" fill="#0D877D"/>
<rect x="202.418" y="142" width="11.907" height="12" fill="#0D877D"/>
<rect x="214.326" y="142" width="11.907" height="12" fill="#0D877D"/>
<rect x="226.232" y="142" width="11.907" height="12" fill="#0D877D"/>
<rect x="238.14" y="142" width="11.907" height="12" fill="#0D877D"/>
<rect x="250.046" y="142" width="11.907" height="12" fill="#0D877D"/>
<rect x="261.954" y="142" width="11.907" height="12" fill="#0D877D"/>
<rect x="273.86" y="142" width="11.907" height="12" fill="#0D877D"/>
<rect x="285.768" y="142" width="11.907" height="12" fill="#0D877D"/>
<rect x="297.674" y="142" width="11.907" height="12" fill="#0D877D"/>
<rect x="309.582" y="142" width="11.907" height="12" fill="#0D877D"/>
<rect x="381.023" y="142" width="11.907" height="12" fill="#0D877D"/>
<rect x="392.93" y="142" width="11.907" height="12" fill="#0D877D"/>
<rect x="404.837" y="142" width="11.907" height="12" fill="#0D877D"/>
<rect x="416.744" y="142" width="11.907" height="12" fill="#0D877D"/>
<rect x="428.651" y="142" width="11.907" height="12" fill="#0D877D"/>
<rect x="440.558" y="142" width="11.907" height="12" fill="#0D877D"/>
<rect x="452.465" y="142" width="11.907" height="12" fill="#0D877D"/>
<rect x="464.372" y="142" width="11.907" height="12" fill="#0D877D"/>
<rect x="476.279" y="142" width="11.907" height="12" fill="#0D877D"/>
<rect x="488.186" y="142" width="11.907" height="12" fill="#0D877D"/>
<rect x="500.093" y="142" width="11.907" height="12" fill="#0D877D"/>
<rect y="154" width="11.907" height="12" fill="#0D877D"/>
<rect x="11.9067" y="154" width="11.907" height="12" fill="#0D877D"/>
<rect x="23.814" y="154" width="11.907" height="12" fill="#0D877D"/>
<rect x="35.7207" y="154" width="11.907" height="12" fill="#0D877D"/>
<rect x="47.6279" y="154" width="11.907" height="12" fill="#0D877D"/>
<rect x="59.5347" y="154" width="11.907" height="12" fill="#0D877D"/>
<rect x="71.4419" y="154" width="11.907" height="12" fill="#0D877D"/>
<rect x="83.3486" y="154" width="11.907" height="12" fill="#0D877D"/>
<rect x="95.2559" y="154" width="11.907" height="12" fill="#0D877D"/>
<rect x="107.163" y="154" width="11.907" height="12" fill="#0D877D"/>
<rect x="119.07" y="154" width="11.907" height="12" fill="#0D877D"/>
<rect x="190.512" y="154" width="11.907" height="12" fill="#0D877D"/>
<rect x="202.418" y="154" width="11.907" height="12" fill="#0D877D"/>
<rect x="214.326" y="154" width="11.907" height="12" fill="#0D877D"/>
<rect x="226.232" y="154" width="11.907" height="12" fill="#0D877D"/>
<rect x="238.14" y="154" width="11.907" height="12" fill="#0D877D"/>
<rect x="250.046" y="154" width="11.907" height="12" fill="#0D877D"/>
<rect x="261.954" y="154" width="11.907" height="12" fill="#0D877D"/>
<rect x="273.86" y="154" width="11.907" height="12" fill="#0D877D"/>
<rect x="285.768" y="154" width="11.907" height="12" fill="#0D877D"/>
<rect x="297.674" y="154" width="11.907" height="12" fill="#0D877D"/>
<rect x="309.582" y="154" width="11.907" height="12" fill="#0D877D"/>
<rect x="381.023" y="154" width="11.907" height="12" fill="#0D877D"/>
<rect x="392.93" y="154" width="11.907" height="12" fill="#0D877D"/>
<rect x="404.837" y="154" width="11.907" height="12" fill="#0D877D"/>
<rect x="416.744" y="154" width="11.907" height="12" fill="#0D877D"/>
<rect x="428.651" y="154" width="11.907" height="12" fill="#0D877D"/>
<rect x="440.558" y="154" width="11.907" height="12" fill="#0D877D"/>
<rect x="452.465" y="154" width="11.907" height="12" fill="#0D877D"/>
<rect x="464.372" y="154" width="11.907" height="12" fill="#0D877D"/>
<rect x="476.279" y="154" width="11.907" height="12" fill="#0D877D"/>
<rect x="488.186" y="154" width="11.907" height="12" fill="#0D877D"/>
<rect x="500.093" y="154" width="11.907" height="12" fill="#0D877D"/>
<rect y="166" width="11.907" height="12" fill="#0D877D"/>
<rect x="11.9067" y="166" width="11.907" height="12" fill="#0D877D"/>
<rect x="23.814" y="166" width="11.907" height="12" fill="#0D877D"/>
<rect x="35.7207" y="166" width="11.907" height="12" fill="#0D877D"/>
<rect x="47.6279" y="166" width="11.907" height="12" fill="#0D877D"/>
<rect x="59.5347" y="166" width="11.907" height="12" fill="#0D877D"/>
<rect x="71.4419" y="166" width="11.907" height="12" fill="#0D877D"/>
<rect x="83.3486" y="166" width="11.907" height="12" fill="#0D877D"/>
<rect x="95.2559" y="166" width="11.907" height="12" fill="#0D877D"/>
<rect x="107.163" y="166" width="11.907" height="12" fill="#0D877D"/>
<rect x="119.07" y="166" width="11.907" height="12" fill="#0D877D"/>
<rect x="190.512" y="166" width="11.907" height="12" fill="#0D877D"/>
<rect x="202.418" y="166" width="11.907" height="12" fill="#0D877D"/>
<rect x="214.326" y="166" width="11.907" height="12" fill="#0D877D"/>
<rect x="226.232" y="166" width="11.907" height="12" fill="#0D877D"/>
<rect x="238.14" y="166" width="11.907" height="12" fill="#0D877D"/>
<rect x="250.046" y="166" width="11.907" height="12" fill="#0D877D"/>
<rect x="261.954" y="166" width="11.907" height="12" fill="#0D877D"/>
<rect x="273.86" y="166" width="11.907" height="12" fill="#0D877D"/>
<rect x="285.768" y="166" width="11.907" height="12" fill="#0D877D"/>
<rect x="297.674" y="166" width="11.907" height="12" fill="#0D877D"/>
<rect x="309.582" y="166" width="11.907" height="12" fill="#0D877D"/>
<rect x="381.023" y="166" width="11.907" height="12" fill="#0D877D"/>
<rect x="392.93" y="166" width="11.907" height="12" fill="#0D877D"/>
<rect x="404.837" y="166" width="11.907" height="12" fill="#0D877D"/>
<rect x="416.744" y="166" width="11.907" height="12" fill="#0D877D"/>
<rect x="428.651" y="166" width="11.907" height="12" fill="#0D877D"/>
<rect x="440.558" y="166" width="11.907" height="12" fill="#0D877D"/>
<rect x="452.465" y="166" width="11.907" height="12" fill="#0D877D"/>
<rect x="464.372" y="166" width="11.907" height="12" fill="#0D877D"/>
<rect x="476.279" y="166" width="11.907" height="12" fill="#0D877D"/>
<rect x="488.186" y="166" width="11.907" height="12" fill="#0D877D"/>
<rect x="500.093" y="166" width="11.907" height="12" fill="#0D877D"/>
<rect y="178" width="11.907" height="12" fill="#0D877D"/>
<rect x="11.9067" y="178" width="11.907" height="12" fill="#0D877D"/>
<rect x="23.814" y="178" width="11.907" height="12" fill="#0D877D"/>
<rect x="35.7207" y="178" width="11.907" height="12" fill="#0D877D"/>
<rect x="47.6279" y="178" width="11.907" height="12" fill="#0D877D"/>
<rect x="59.5347" y="178" width="11.907" height="12" fill="#0D877D"/>
<rect x="71.4419" y="178" width="11.907" height="12" fill="#0D877D"/>
<rect x="83.3486" y="178" width="11.907" height="12" fill="#0D877D"/>
<rect x="95.2559" y="178" width="11.907" height="12" fill="#0D877D"/>
<rect x="107.163" y="178" width="11.907" height="12" fill="#0D877D"/>
<rect x="190.512" y="178" width="11.907" height="12" fill="#0D877D"/>
<rect x="202.418" y="178" width="11.907" height="12" fill="#0D877D"/>
<rect x="214.326" y="178" width="11.907" height="12" fill="#0D877D"/>
<rect x="226.232" y="178" width="11.907" height="12" fill="#0D877D"/>
<rect x="238.14" y="178" width="11.907" height="12" fill="#0D877D"/>
<rect x="250.046" y="178" width="11.907" height="12" fill="#0D877D"/>
<rect x="261.954" y="178" width="11.907" height="12" fill="#0D877D"/>
<rect x="273.86" y="178" width="11.907" height="12" fill="#0D877D"/>
<rect x="285.768" y="178" width="11.907" height="12" fill="#0D877D"/>
<rect x="297.674" y="178" width="11.907" height="12" fill="#0D877D"/>
<rect x="381.023" y="178" width="11.907" height="12" fill="#0D877D"/>
<rect x="392.93" y="178" width="11.907" height="12" fill="#0D877D"/>
<rect x="404.837" y="178" width="11.907" height="12" fill="#0D877D"/>
<rect x="416.744" y="178" width="11.907" height="12" fill="#0D877D"/>
<rect x="428.651" y="178" width="11.907" height="12" fill="#0D877D"/>
<rect x="440.558" y="178" width="11.907" height="12" fill="#0D877D"/>
<rect x="452.465" y="178" width="11.907" height="12" fill="#0D877D"/>
<rect x="464.372" y="178" width="11.907" height="12" fill="#0D877D"/>
<rect x="476.279" y="178" width="11.907" height="12" fill="#0D877D"/>
<rect x="488.186" y="178" width="11.907" height="12" fill="#0D877D"/>
<rect x="11.9067" y="190" width="11.907" height="12" fill="#0D877D"/>
<rect x="23.814" y="190" width="11.907" height="12" fill="#0D877D"/>
<rect x="35.7207" y="190" width="11.907" height="12" fill="#0D877D"/>
<rect x="47.6279" y="190" width="11.907" height="12" fill="#0D877D"/>
<rect x="59.5347" y="190" width="11.907" height="12" fill="#0D877D"/>
<rect x="71.4419" y="190" width="11.907" height="12" fill="#0D877D"/>
<rect x="83.3486" y="190" width="11.907" height="12" fill="#0D877D"/>
<rect x="95.2559" y="190" width="11.907" height="12" fill="#0D877D"/>
<rect x="107.163" y="190" width="11.907" height="12" fill="#0D877D"/>
<rect x="202.418" y="190" width="11.907" height="12" fill="#0D877D"/>
<rect x="214.326" y="190" width="11.907" height="12" fill="#0D877D"/>
<rect x="226.232" y="190" width="11.907" height="12" fill="#0D877D"/>
<rect x="238.14" y="190" width="11.907" height="12" fill="#0D877D"/>
<rect x="250.046" y="190" width="11.907" height="12" fill="#0D877D"/>
<rect x="261.954" y="190" width="11.907" height="12" fill="#0D877D"/>
<rect x="273.86" y="190" width="11.907" height="12" fill="#0D877D"/>
<rect x="285.768" y="190" width="11.907" height="12" fill="#0D877D"/>
<rect x="297.674" y="190" width="11.907" height="12" fill="#0D877D"/>
<rect x="392.93" y="190" width="11.907" height="12" fill="#0D877D"/>
<rect x="404.837" y="190" width="11.907" height="12" fill="#0D877D"/>
<rect x="416.744" y="190" width="11.907" height="12" fill="#0D877D"/>
<rect x="428.651" y="190" width="11.907" height="12" fill="#0D877D"/>
<rect x="440.558" y="190" width="11.907" height="12" fill="#0D877D"/>
<rect x="452.465" y="190" width="11.907" height="12" fill="#0D877D"/>
<rect x="464.372" y="190" width="11.907" height="12" fill="#0D877D"/>
<rect x="476.279" y="190" width="11.907" height="12" fill="#0D877D"/>
<rect x="488.186" y="190" width="11.907" height="12" fill="#0D877D"/>
<rect x="23.814" y="202" width="11.907" height="12" fill="#0D877D"/>
<rect x="35.7207" y="202" width="11.907" height="12" fill="#0D877D"/>
<rect x="47.6279" y="202" width="11.907" height="12" fill="#0D877D"/>
<rect x="59.5347" y="202" width="11.907" height="12" fill="#0D877D"/>
<rect x="71.4419" y="202" width="11.907" height="12" fill="#0D877D"/>
<rect x="83.3486" y="202" width="11.907" height="12" fill="#0D877D"/>
<rect x="95.2559" y="202" width="11.907" height="12" fill="#0D877D"/>
<rect x="202.418" y="202" width="11.907" height="12" fill="#0D877D"/>
<rect x="214.326" y="202" width="11.907" height="12" fill="#0D877D"/>
<rect x="226.232" y="202" width="11.907" height="12" fill="#0D877D"/>
<rect x="238.14" y="202" width="11.907" height="12" fill="#0D877D"/>
<rect x="250.046" y="202" width="11.907" height="12" fill="#0D877D"/>
<rect x="261.954" y="202" width="11.907" height="12" fill="#0D877D"/>
<rect x="273.86" y="202" width="11.907" height="12" fill="#0D877D"/>
<rect x="285.768" y="202" width="11.907" height="12" fill="#0D877D"/>
<rect x="392.93" y="202" width="11.907" height="12" fill="#0D877D"/>
<rect x="404.837" y="202" width="11.907" height="12" fill="#0D877D"/>
<rect x="416.744" y="202" width="11.907" height="12" fill="#0D877D"/>
<rect x="428.651" y="202" width="11.907" height="12" fill="#0D877D"/>
<rect x="440.558" y="202" width="11.907" height="12" fill="#0D877D"/>
<rect x="452.465" y="202" width="11.907" height="12" fill="#0D877D"/>
<rect x="464.372" y="202" width="11.907" height="12" fill="#0D877D"/>
<rect x="476.279" y="202" width="11.907" height="12" fill="#0D877D"/>
<rect x="47.6279" y="214" width="11.907" height="12" fill="#0D877D"/>
<rect x="59.5347" y="214" width="11.907" height="12" fill="#0D877D"/>
<rect x="71.4419" y="214" width="11.907" height="12" fill="#0D877D"/>
<rect x="202.418" y="214" width="11.907" height="12" fill="#0D877D"/>
<rect x="214.326" y="214" width="11.907" height="12" fill="#0D877D"/>
<rect x="226.232" y="214" width="11.907" height="12" fill="#0D877D"/>
<rect x="238.14" y="214" width="11.907" height="12" fill="#0D877D"/>
<rect x="250.046" y="214" width="11.907" height="12" fill="#0D877D"/>
<rect x="261.954" y="214" width="11.907" height="12" fill="#0D877D"/>
<rect x="392.93" y="214" width="11.907" height="12" fill="#0D877D"/>
<rect x="404.837" y="214" width="11.907" height="12" fill="#0D877D"/>
<rect x="416.744" y="214" width="11.907" height="12" fill="#0D877D"/>
<rect x="428.651" y="214" width="11.907" height="12" fill="#0D877D"/>
<rect x="440.558" y="214" width="11.907" height="12" fill="#0D877D"/>
<rect x="452.465" y="214" width="11.907" height="12" fill="#0D877D"/>
<rect x="202.418" y="226" width="11.907" height="12" fill="#0D877D"/>
<rect x="214.326" y="226" width="11.907" height="12" fill="#0D877D"/>
<rect x="226.232" y="226" width="11.907" height="12" fill="#0D877D"/>
<rect x="238.14" y="226" width="11.907" height="12" fill="#0D877D"/>
<rect x="250.046" y="226" width="11.907" height="12" fill="#0D877D"/>
<rect x="392.93" y="226" width="11.907" height="12" fill="#0D877D"/>
<rect x="404.837" y="226" width="11.907" height="12" fill="#0D877D"/>
<rect x="416.744" y="226" width="11.907" height="12" fill="#0D877D"/>
<rect x="428.651" y="226" width="11.907" height="12" fill="#0D877D"/>
<rect x="440.558" y="226" width="11.907" height="12" fill="#0D877D"/>
<rect x="202.418" y="238" width="11.907" height="12" fill="#0D877D"/>
<rect x="214.326" y="238" width="11.907" height="12" fill="#0D877D"/>
<rect x="226.232" y="238" width="11.907" height="12" fill="#0D877D"/>
<rect x="238.14" y="238" width="11.907" height="12" fill="#0D877D"/>
<rect x="392.93" y="238" width="11.907" height="12" fill="#0D877D"/>
<rect x="404.837" y="238" width="11.907" height="12" fill="#0D877D"/>
<rect x="416.744" y="238" width="11.907" height="12" fill="#0D877D"/>
<rect x="428.651" y="238" width="11.907" height="12" fill="#0D877D"/>
<rect x="190.512" y="250" width="11.907" height="12" fill="#0D877D"/>
<rect x="202.418" y="250" width="11.907" height="12" fill="#0D877D"/>
<rect x="214.326" y="250" width="11.907" height="12" fill="#0D877D"/>
<rect x="226.232" y="250" width="11.907" height="12" fill="#0D877D"/>
<rect x="238.14" y="250" width="11.907" height="12" fill="#0D877D"/>
<rect x="381.023" y="250" width="11.907" height="12" fill="#0D877D"/>
<rect x="392.93" y="250" width="11.907" height="12" fill="#0D877D"/>
<rect x="404.837" y="250" width="11.907" height="12" fill="#0D877D"/>
<rect x="416.744" y="250" width="11.907" height="12" fill="#0D877D"/>
<rect x="428.651" y="250" width="11.907" height="12" fill="#0D877D"/>
<rect x="190.512" y="262" width="11.907" height="12" fill="#0D877D"/>
<rect x="202.418" y="262" width="11.907" height="12" fill="#0D877D"/>
<rect x="214.326" y="262" width="11.907" height="12" fill="#0D877D"/>
<rect x="226.232" y="262" width="11.907" height="12" fill="#0D877D"/>
<rect x="381.023" y="262" width="11.907" height="12" fill="#0D877D"/>
<rect x="392.93" y="262" width="11.907" height="12" fill="#0D877D"/>
<rect x="404.837" y="262" width="11.907" height="12" fill="#0D877D"/>
<rect x="416.744" y="262" width="11.907" height="12" fill="#0D877D"/>
<rect x="178.604" y="274" width="11.907" height="12" fill="#0D877D"/>
<rect x="190.512" y="274" width="11.907" height="12" fill="#0D877D"/>
<rect x="202.418" y="274" width="11.907" height="12" fill="#0D877D"/>
<rect x="214.326" y="274" width="11.907" height="12" fill="#0D877D"/>
<rect x="226.232" y="274" width="11.907" height="12" fill="#0D877D"/>
<rect x="369.116" y="274" width="11.907" height="12" fill="#0D877D"/>
<rect x="381.023" y="274" width="11.907" height="12" fill="#0D877D"/>
<rect x="392.93" y="274" width="11.907" height="12" fill="#0D877D"/>
<rect x="404.837" y="274" width="11.907" height="12" fill="#0D877D"/>
<rect x="416.744" y="274" width="11.907" height="12" fill="#0D877D"/>
<rect x="166.698" y="286" width="11.907" height="12" fill="#0D877D"/>
<rect x="178.604" y="286" width="11.907" height="12" fill="#0D877D"/>
<rect x="190.512" y="286" width="11.907" height="12" fill="#0D877D"/>
<rect x="202.418" y="286" width="11.907" height="12" fill="#0D877D"/>
<rect x="214.326" y="286" width="11.907" height="12" fill="#0D877D"/>
<rect x="226.232" y="286" width="11.907" height="12" fill="#0D877D"/>
<rect x="357.209" y="286" width="11.907" height="12" fill="#0D877D"/>
<rect x="369.116" y="286" width="11.907" height="12" fill="#0D877D"/>
<rect x="381.023" y="286" width="11.907" height="12" fill="#0D877D"/>
<rect x="392.93" y="286" width="11.907" height="12" fill="#0D877D"/>
<rect x="404.837" y="286" width="11.907" height="12" fill="#0D877D"/>
<rect x="416.744" y="286" width="11.907" height="12" fill="#0D877D"/>
<rect x="142.884" y="298" width="11.907" height="12" fill="#0D877D"/>
<rect x="154.791" y="298" width="11.907" height="12" fill="#0D877D"/>
<rect x="166.698" y="298" width="11.907" height="12" fill="#0D877D"/>
<rect x="178.604" y="298" width="11.907" height="12" fill="#0D877D"/>
<rect x="190.512" y="298" width="11.907" height="12" fill="#0D877D"/>
<rect x="202.418" y="298" width="11.907" height="12" fill="#0D877D"/>
<rect x="214.326" y="298" width="11.907" height="12" fill="#0D877D"/>
<rect x="226.232" y="298" width="11.907" height="12" fill="#0D877D"/>
<rect x="333.396" y="298" width="11.907" height="12" fill="#0D877D"/>
<rect x="345.302" y="298" width="11.907" height="12" fill="#0D877D"/>
<rect x="357.209" y="298" width="11.907" height="12" fill="#0D877D"/>
<rect x="369.116" y="298" width="11.907" height="12" fill="#0D877D"/>
<rect x="381.023" y="298" width="11.907" height="12" fill="#0D877D"/>
<rect x="392.93" y="298" width="11.907" height="12" fill="#0D877D"/>
<rect x="404.837" y="298" width="11.907" height="12" fill="#0D877D"/>
<rect x="416.744" y="298" width="11.907" height="12" fill="#0D877D"/>
<rect x="130.977" y="310" width="11.907" height="12" fill="#0D877D"/>
<rect x="142.884" y="310" width="11.907" height="12" fill="#0D877D"/>
<rect x="154.791" y="310" width="11.907" height="12" fill="#0D877D"/>
<rect x="166.698" y="310" width="11.907" height="12" fill="#0D877D"/>
<rect x="178.604" y="310" width="11.907" height="12" fill="#0D877D"/>
<rect x="190.512" y="310" width="11.907" height="12" fill="#0D877D"/>
<rect x="202.418" y="310" width="11.907" height="12" fill="#0D877D"/>
<rect x="214.326" y="310" width="11.907" height="12" fill="#0D877D"/>
<rect x="226.232" y="310" width="11.907" height="12" fill="#0D877D"/>
<rect x="238.14" y="310" width="11.907" height="12" fill="#0D877D"/>
<rect x="321.488" y="310" width="11.907" height="12" fill="#0D877D"/>
<rect x="333.396" y="310" width="11.907" height="12" fill="#0D877D"/>
<rect x="345.302" y="310" width="11.907" height="12" fill="#0D877D"/>
<rect x="357.209" y="310" width="11.907" height="12" fill="#0D877D"/>
<rect x="369.116" y="310" width="11.907" height="12" fill="#0D877D"/>
<rect x="381.023" y="310" width="11.907" height="12" fill="#0D877D"/>
<rect x="392.93" y="310" width="11.907" height="12" fill="#0D877D"/>
<rect x="404.837" y="310" width="11.907" height="12" fill="#0D877D"/>
<rect x="416.744" y="310" width="11.907" height="12" fill="#0D877D"/>
<rect x="428.651" y="310" width="11.907" height="12" fill="#0D877D"/>
<rect x="130.977" y="322" width="11.907" height="12" fill="#0D877D"/>
<rect x="142.884" y="322" width="11.907" height="12" fill="#0D877D"/>
<rect x="154.791" y="322" width="11.907" height="12" fill="#0D877D"/>
<rect x="166.698" y="322" width="11.907" height="12" fill="#0D877D"/>
<rect x="178.604" y="322" width="11.907" height="12" fill="#0D877D"/>
<rect x="190.512" y="322" width="11.907" height="12" fill="#0D877D"/>
<rect x="202.418" y="322" width="11.907" height="12" fill="#0D877D"/>
<rect x="214.326" y="322" width="11.907" height="12" fill="#0D877D"/>
<rect x="226.232" y="322" width="11.907" height="12" fill="#0D877D"/>
<rect x="238.14" y="322" width="11.907" height="12" fill="#0D877D"/>
<rect x="321.488" y="322" width="11.907" height="12" fill="#0D877D"/>
<rect x="333.396" y="322" width="11.907" height="12" fill="#0D877D"/>
<rect x="345.302" y="322" width="11.907" height="12" fill="#0D877D"/>
<rect x="357.209" y="322" width="11.907" height="12" fill="#0D877D"/>
<rect x="369.116" y="322" width="11.907" height="12" fill="#0D877D"/>
<rect x="381.023" y="322" width="11.907" height="12" fill="#0D877D"/>
<rect x="392.93" y="322" width="11.907" height="12" fill="#0D877D"/>
<rect x="404.837" y="322" width="11.907" height="12" fill="#0D877D"/>
<rect x="416.744" y="322" width="11.907" height="12" fill="#0D877D"/>
<rect x="428.651" y="322" width="11.907" height="12" fill="#0D877D"/>
<rect x="130.977" y="334" width="11.907" height="12" fill="#0D877D"/>
<rect x="142.884" y="334" width="11.907" height="12" fill="#0D877D"/>
<rect x="154.791" y="334" width="11.907" height="12" fill="#0D877D"/>
<rect x="166.698" y="334" width="11.907" height="12" fill="#0D877D"/>
<rect x="178.604" y="334" width="11.907" height="12" fill="#0D877D"/>
<rect x="190.512" y="334" width="11.907" height="12" fill="#0D877D"/>
<rect x="202.418" y="334" width="11.907" height="12" fill="#0D877D"/>
<rect x="214.326" y="334" width="11.907" height="12" fill="#0D877D"/>
<rect x="226.232" y="334" width="11.907" height="12" fill="#0D877D"/>
<rect x="238.14" y="334" width="11.907" height="12" fill="#0D877D"/>
<rect x="321.488" y="334" width="11.907" height="12" fill="#0D877D"/>
<rect x="333.396" y="334" width="11.907" height="12" fill="#0D877D"/>
<rect x="345.302" y="334" width="11.907" height="12" fill="#0D877D"/>
<rect x="357.209" y="334" width="11.907" height="12" fill="#0D877D"/>
<rect x="369.116" y="334" width="11.907" height="12" fill="#0D877D"/>
<rect x="381.023" y="334" width="11.907" height="12" fill="#0D877D"/>
<rect x="392.93" y="334" width="11.907" height="12" fill="#0D877D"/>
<rect x="404.837" y="334" width="11.907" height="12" fill="#0D877D"/>
<rect x="416.744" y="334" width="11.907" height="12" fill="#0D877D"/>
<rect x="428.651" y="334" width="11.907" height="12" fill="#0D877D"/>
<rect x="130.977" y="346" width="11.907" height="12" fill="#0D877D"/>
<rect x="142.884" y="346" width="11.907" height="12" fill="#0D877D"/>
<rect x="154.791" y="346" width="11.907" height="12" fill="#0D877D"/>
<rect x="166.698" y="346" width="11.907" height="12" fill="#0D877D"/>
<rect x="178.604" y="346" width="11.907" height="12" fill="#0D877D"/>
<rect x="190.512" y="346" width="11.907" height="12" fill="#0D877D"/>
<rect x="202.418" y="346" width="11.907" height="12" fill="#0D877D"/>
<rect x="214.326" y="346" width="11.907" height="12" fill="#0D877D"/>
<rect x="226.232" y="346" width="11.907" height="12" fill="#0D877D"/>
<rect x="238.14" y="346" width="11.907" height="12" fill="#0D877D"/>
<rect x="321.488" y="346" width="11.907" height="12" fill="#0D877D"/>
<rect x="333.396" y="346" width="11.907" height="12" fill="#0D877D"/>
<rect x="345.302" y="346" width="11.907" height="12" fill="#0D877D"/>
<rect x="357.209" y="346" width="11.907" height="12" fill="#0D877D"/>
<rect x="369.116" y="346" width="11.907" height="12" fill="#0D877D"/>
<rect x="381.023" y="346" width="11.907" height="12" fill="#0D877D"/>
<rect x="392.93" y="346" width="11.907" height="12" fill="#0D877D"/>
<rect x="404.837" y="346" width="11.907" height="12" fill="#0D877D"/>
<rect x="416.744" y="346" width="11.907" height="12" fill="#0D877D"/>
<rect x="428.651" y="346" width="11.907" height="12" fill="#0D877D"/>
<rect x="130.977" y="358" width="11.907" height="12" fill="#0D877D"/>
<rect x="142.884" y="358" width="11.907" height="12" fill="#0D877D"/>
<rect x="154.791" y="358" width="11.907" height="12" fill="#0D877D"/>
<rect x="166.698" y="358" width="11.907" height="12" fill="#0D877D"/>
<rect x="178.604" y="358" width="11.907" height="12" fill="#0D877D"/>
<rect x="190.512" y="358" width="11.907" height="12" fill="#0D877D"/>
<rect x="202.418" y="358" width="11.907" height="12" fill="#0D877D"/>
<rect x="214.326" y="358" width="11.907" height="12" fill="#0D877D"/>
<rect x="226.232" y="358" width="11.907" height="12" fill="#0D877D"/>
<rect x="238.14" y="358" width="11.907" height="12" fill="#0D877D"/>
<rect x="321.488" y="358" width="11.907" height="12" fill="#0D877D"/>
<rect x="333.396" y="358" width="11.907" height="12" fill="#0D877D"/>
<rect x="345.302" y="358" width="11.907" height="12" fill="#0D877D"/>
<rect x="357.209" y="358" width="11.907" height="12" fill="#0D877D"/>
<rect x="369.116" y="358" width="11.907" height="12" fill="#0D877D"/>
<rect x="381.023" y="358" width="11.907" height="12" fill="#0D877D"/>
<rect x="392.93" y="358" width="11.907" height="12" fill="#0D877D"/>
<rect x="404.837" y="358" width="11.907" height="12" fill="#0D877D"/>
<rect x="416.744" y="358" width="11.907" height="12" fill="#0D877D"/>
<rect x="428.651" y="358" width="11.907" height="12" fill="#0D877D"/>
<rect x="130.977" y="370" width="11.907" height="12" fill="#0D877D"/>
<rect x="142.884" y="370" width="11.907" height="12" fill="#0D877D"/>
<rect x="154.791" y="370" width="11.907" height="12" fill="#0D877D"/>
<rect x="166.698" y="370" width="11.907" height="12" fill="#0D877D"/>
<rect x="178.604" y="370" width="11.907" height="12" fill="#0D877D"/>
<rect x="190.512" y="370" width="11.907" height="12" fill="#0D877D"/>
<rect x="202.418" y="370" width="11.907" height="12" fill="#0D877D"/>
<rect x="214.326" y="370" width="11.907" height="12" fill="#0D877D"/>
<rect x="226.232" y="370" width="11.907" height="12" fill="#0D877D"/>
<rect x="238.14" y="370" width="11.907" height="12" fill="#0D877D"/>
<rect x="321.488" y="370" width="11.907" height="12" fill="#0D877D"/>
<rect x="333.396" y="370" width="11.907" height="12" fill="#0D877D"/>
<rect x="345.302" y="370" width="11.907" height="12" fill="#0D877D"/>
<rect x="357.209" y="370" width="11.907" height="12" fill="#0D877D"/>
<rect x="369.116" y="370" width="11.907" height="12" fill="#0D877D"/>
<rect x="381.023" y="370" width="11.907" height="12" fill="#0D877D"/>
<rect x="392.93" y="370" width="11.907" height="12" fill="#0D877D"/>
<rect x="404.837" y="370" width="11.907" height="12" fill="#0D877D"/>
<rect x="416.744" y="370" width="11.907" height="12" fill="#0D877D"/>
<rect x="428.651" y="370" width="11.907" height="12" fill="#0D877D"/>
<rect x="142.884" y="382" width="11.907" height="12" fill="#0D877D"/>
<rect x="154.791" y="382" width="11.907" height="12" fill="#0D877D"/>
<rect x="166.698" y="382" width="11.907" height="12" fill="#0D877D"/>
<rect x="178.604" y="382" width="11.907" height="12" fill="#0D877D"/>
<rect x="190.512" y="382" width="11.907" height="12" fill="#0D877D"/>
<rect x="202.418" y="382" width="11.907" height="12" fill="#0D877D"/>
<rect x="214.326" y="382" width="11.907" height="12" fill="#0D877D"/>
<rect x="226.232" y="382" width="11.907" height="12" fill="#0D877D"/>
<rect x="333.396" y="382" width="11.907" height="12" fill="#0D877D"/>
<rect x="345.302" y="382" width="11.907" height="12" fill="#0D877D"/>
<rect x="357.209" y="382" width="11.907" height="12" fill="#0D877D"/>
<rect x="369.116" y="382" width="11.907" height="12" fill="#0D877D"/>
<rect x="381.023" y="382" width="11.907" height="12" fill="#0D877D"/>
<rect x="392.93" y="382" width="11.907" height="12" fill="#0D877D"/>
<rect x="404.837" y="382" width="11.907" height="12" fill="#0D877D"/>
<rect x="416.744" y="382" width="11.907" height="12" fill="#0D877D"/>
<rect x="154.791" y="394" width="11.907" height="12" fill="#0D877D"/>
<rect x="166.698" y="394" width="11.907" height="12" fill="#0D877D"/>
<rect x="178.604" y="394" width="11.907" height="12" fill="#0D877D"/>
<rect x="190.512" y="394" width="11.907" height="12" fill="#0D877D"/>
<rect x="202.418" y="394" width="11.907" height="12" fill="#0D877D"/>
<rect x="214.326" y="394" width="11.907" height="12" fill="#0D877D"/>
<rect x="345.302" y="394" width="11.907" height="12" fill="#0D877D"/>
<rect x="357.209" y="394" width="11.907" height="12" fill="#0D877D"/>
<rect x="369.116" y="394" width="11.907" height="12" fill="#0D877D"/>
<rect x="381.023" y="394" width="11.907" height="12" fill="#0D877D"/>
<rect x="392.93" y="394" width="11.907" height="12" fill="#0D877D"/>
<rect x="404.837" y="394" width="11.907" height="12" fill="#0D877D"/>
<rect x="178.604" y="406" width="11.907" height="12" fill="#0D877D"/>
<rect x="190.512" y="406" width="11.907" height="12" fill="#0D877D"/>
<rect x="369.116" y="406" width="11.907" height="12" fill="#0D877D"/>
<rect x="381.023" y="406" width="11.907" height="12" fill="#0D877D"/>
</svg>
